<svg width="47" height="47" viewBox="0 0 47 47" fill="none" xmlns="http://www.w3.org/2000/svg">
<circle cx="23.6463" cy="23.2708" r="23.2708" fill="#E25454"/>
<path d="M23.6808 35.2871C21.1912 32.7919 19.1398 30.693 17.5265 28.9901C15.9123 27.2864 14.6352 25.8135 13.6951 24.5714C12.7551 23.3276 12.1008 22.2333 11.7324 21.2886C11.3639 20.3439 11.1797 19.3886 11.1797 18.4227C11.1797 16.4936 11.852 14.8573 13.1965 13.5137C14.541 12.1701 16.1774 11.4978 18.1055 11.4969C18.9846 11.4969 19.8379 11.6474 20.6653 11.9484C21.4927 12.2495 22.243 12.6867 22.9162 13.2602L20.6362 21.193H24.872L23.8276 32.3672L28.0676 18.4227H23.8595L25.9192 12.2532C26.4068 12.0011 26.9239 11.8118 27.4706 11.6853C28.0164 11.5597 28.5704 11.4969 29.1328 11.4969C31.0619 11.4969 32.6987 12.1691 34.0432 13.5137C35.3878 14.8582 36.06 16.4945 36.06 18.4227C36.06 19.4071 35.861 20.3873 35.463 21.3634C35.065 22.3395 34.3858 23.4642 33.4254 24.7377C32.4651 26.0111 31.1926 27.4886 29.6079 29.1702C28.0233 30.8518 26.0476 32.8907 23.6808 35.2871Z" fill="#F4C366"/>
</svg>
