<svg width="47" height="47" viewBox="0 0 47 47" fill="none" xmlns="http://www.w3.org/2000/svg">
<circle cx="23.2708" cy="23.2708" r="23.2708" fill="#F4C366"/>
<path d="M23.3053 35.287C20.8157 32.7919 18.7643 30.6929 17.151 28.9901C15.5368 27.2863 14.2597 25.8134 13.3197 24.5714C12.3796 23.3275 11.7253 22.2332 11.3569 21.2886C10.9884 20.3439 10.8042 19.3886 10.8042 18.4227C10.8042 16.4936 11.4765 14.8572 12.821 13.5136C14.1655 12.17 15.8019 11.4977 17.73 11.4968C18.6091 11.4968 19.4624 11.6473 20.2898 11.9484C21.1172 12.2494 21.8675 12.6867 22.5407 13.2601L20.2607 21.193H24.4966L23.4521 32.3671L27.6921 18.4227H23.484L25.5437 12.2531C26.0313 12.001 26.5484 11.8117 27.0951 11.6852C27.6409 11.5596 28.195 11.4968 28.7573 11.4968C30.6864 11.4968 32.3232 12.1691 33.6677 13.5136C35.0123 14.8582 35.6845 16.4945 35.6845 18.4227C35.6845 19.407 35.4855 20.3873 35.0875 21.3634C34.6895 22.3394 34.0103 23.4642 33.05 24.7376C32.0896 26.0111 30.8171 27.4886 29.2324 29.1702C27.6478 30.8517 25.6721 32.8907 23.3053 35.287Z" fill="#E25454"/>
</svg>
