<svg width="20" height="22" viewBox="0 0 20 22" fill="none" xmlns="http://www.w3.org/2000/svg">
<path d="M-5.96046e-07 11.6875C-5.96046e-07 12.2511 0.191558 12.7916 0.532533 13.1901C0.873508 13.5886 1.33597 13.8125 1.81818 13.8125H7.56364L6.69091 18.6681C6.67273 18.7744 6.66364 18.8913 6.66364 19.0081C6.66364 19.4438 6.81818 19.8475 7.06364 20.1344L8.02727 21.25L14.0091 14.2588C14.3455 13.8656 14.5455 13.3344 14.5455 12.75V2.125C14.5455 1.56141 14.3539 1.02091 14.0129 0.622398C13.6719 0.223884 13.2095 0 12.7273 0H4.54545C3.79091 0 3.14545 0.531249 2.87273 1.29625L0.127272 8.78688C0.0454534 9.03125 -5.96046e-07 9.28625 -5.96046e-07 9.5625V11.6875ZM20 0H16.3636V12.75H20V0Z" fill="white"/>
</svg>
