<svg width="20" height="21" viewBox="0 0 20 21" fill="none" xmlns="http://www.w3.org/2000/svg">
<path d="M20 9.40909C20 8.85455 19.8084 8.32272 19.4675 7.93059C19.1265 7.53847 18.664 7.31818 18.1818 7.31818H12.4364L13.3091 2.54045C13.3273 2.43591 13.3364 2.32091 13.3364 2.20591C13.3364 1.77727 13.1818 1.38 12.9364 1.09773L11.9727 0L5.99091 6.87909C5.65455 7.26591 5.45455 7.78864 5.45455 8.36364V18.8182C5.45455 19.3727 5.6461 19.9046 5.98708 20.2967C6.32805 20.6888 6.79052 20.9091 7.27273 20.9091H15.4545C16.2091 20.9091 16.8545 20.3864 17.1273 19.6336L19.8727 12.2632C19.9545 12.0227 20 11.7718 20 11.5V9.40909ZM0 20.9091H3.63636V8.36364H0V20.9091Z" fill="white"/>
</svg>
