<svg width="39" height="36" viewBox="0 0 39 36" fill="none" xmlns="http://www.w3.org/2000/svg">
<path d="M17.3479 32.6729L17.3465 32.6716C12.3057 28.0728 8.20179 24.3221 5.34645 20.8076C2.50228 17.3068 1 14.1615 1 10.7902C1 5.27582 5.2758 1 10.725 1C13.8134 1 16.7959 2.45167 18.7392 4.72966L19.5 5.62147L20.2608 4.72966C22.2041 2.45167 25.1866 1 28.275 1C33.7242 1 38 5.27582 38 10.7902C38 14.1615 36.4977 17.3068 33.6535 20.8076C30.7982 24.3221 26.6943 28.0728 21.6535 32.6716L21.6521 32.6729L19.5 34.644L17.3479 32.6729Z" stroke="white" stroke-width="2"/>
</svg>
