<svg width="47" height="47" viewBox="0 0 47 47" fill="none" xmlns="http://www.w3.org/2000/svg">
<circle cx="23.7293" cy="23.2708" r="23.2708" fill="#E25454"/>
<path d="M23.7807 9.14209C15.8847 9.14209 9.4873 15.3412 9.4873 22.9924C9.4873 28.0243 12.2653 32.4139 16.4034 34.8377V24.7795C16.4034 24.288 16.8184 23.8859 17.3256 23.8859C17.8328 23.8859 18.2478 24.288 18.2478 24.7795V35.7648C19.948 36.4573 21.8211 36.8426 23.7807 36.8426C25.7402 36.8426 27.6134 36.4573 29.3136 35.7648V24.7795C29.3136 24.288 29.7286 23.8859 30.2357 23.8859C30.7429 23.8859 31.1579 24.288 31.1579 24.7795V34.8377C35.2961 32.4139 38.074 28.0187 38.074 22.9924C38.074 15.3412 31.6766 9.14209 23.7807 9.14209ZM20.0056 21.2332C19.1526 20.496 17.3429 20.496 16.4899 21.2332L15.9424 21.7079C15.7234 21.8922 15.4064 21.9313 15.1528 21.7972C14.8992 21.6632 14.7551 21.3839 14.8012 21.1047C15.0317 19.6973 16.7723 18.7535 18.2535 18.7535C19.7347 18.7535 21.4753 19.6973 21.7058 21.1047C21.7519 21.3839 21.6078 21.6632 21.3543 21.7972C21.02 21.9703 20.7087 21.8363 20.5647 21.7079L20.0056 21.2332ZM23.7807 31.928C22.2534 31.928 21.0142 30.3252 21.0142 28.3538C21.0142 26.3823 22.2534 24.7795 23.7807 24.7795C25.308 24.7795 26.5471 26.3823 26.5471 28.3538C26.5471 30.3252 25.308 31.928 23.7807 31.928ZM32.4143 21.7916C32.08 21.9648 31.7688 21.8307 31.6247 21.7023L31.0772 21.2276C30.2242 20.4904 28.4145 20.4904 27.5615 21.2276L27.0082 21.7079C26.7892 21.8922 26.4722 21.9313 26.2186 21.7972C25.965 21.6632 25.8209 21.3839 25.867 21.1047C26.0976 19.6973 27.8381 18.7535 29.3193 18.7535C30.8006 18.7535 32.5411 19.6973 32.7717 21.1047C32.8062 21.3784 32.6679 21.6576 32.4143 21.7916Z" fill="#F4C366"/>
</svg>
