<svg width="47" height="47" viewBox="0 0 47 47" fill="none" xmlns="http://www.w3.org/2000/svg">
<circle cx="23.2708" cy="23.2708" r="23.2708" fill="#F4C366"/>
<path d="M23.3224 9.14209C15.4265 9.14209 9.02905 15.3412 9.02905 22.9924C9.02905 28.0243 11.807 32.4139 15.9452 34.8377V24.7795C15.9452 24.288 16.3602 23.8859 16.8673 23.8859C17.3745 23.8859 17.7895 24.288 17.7895 24.7795V35.7648C19.4897 36.4573 21.3628 36.8426 23.3224 36.8426C25.282 36.8426 27.1551 36.4573 28.8553 35.7648V24.7795C28.8553 24.288 29.2703 23.8859 29.7775 23.8859C30.2847 23.8859 30.6996 24.288 30.6996 24.7795V34.8377C34.8378 32.4139 37.6158 28.0187 37.6158 22.9924C37.6158 15.3412 31.2183 9.14209 23.3224 9.14209ZM19.5474 21.2332C18.6944 20.496 16.8846 20.496 16.0316 21.2332L15.4841 21.7079C15.2651 21.8922 14.9481 21.9313 14.6945 21.7972C14.4409 21.6632 14.2968 21.3839 14.343 21.1047C14.5735 19.6973 16.3141 18.7535 17.7953 18.7535C19.2765 18.7535 21.017 19.6973 21.2476 21.1047C21.2937 21.3839 21.1496 21.6632 20.896 21.7972C20.5617 21.9703 20.2505 21.8363 20.1064 21.7079L19.5474 21.2332ZM23.3224 31.928C21.7951 31.928 20.556 30.3252 20.556 28.3538C20.556 26.3823 21.7951 24.7795 23.3224 24.7795C24.8497 24.7795 26.0889 26.3823 26.0889 28.3538C26.0889 30.3252 24.8497 31.928 23.3224 31.928ZM31.9561 21.7916C31.6218 21.9648 31.3106 21.8307 31.1665 21.7023L30.6189 21.2276C29.766 20.4904 27.9562 20.4904 27.1032 21.2276L26.55 21.7079C26.3309 21.8922 26.014 21.9313 25.7604 21.7972C25.5068 21.6632 25.3627 21.3839 25.4088 21.1047C25.6393 19.6973 27.3799 18.7535 28.8611 18.7535C30.3423 18.7535 32.0829 19.6973 32.3134 21.1047C32.348 21.3784 32.2097 21.6576 31.9561 21.7916Z" fill="#E25454"/>
</svg>
