<svg width="28" height="29" viewBox="0 0 28 29" fill="none" xmlns="http://www.w3.org/2000/svg">
<path d="M20.5315 18.7023H19.2341L18.7742 18.2433C19.8006 17.0091 20.5507 15.5553 20.9709 13.9859C21.3911 12.4165 21.471 10.7704 21.2049 9.16539C20.433 4.43942 16.6228 0.665443 12.0242 0.0874468C10.4075 -0.12426 8.76549 0.0496589 7.22373 0.595895C5.68197 1.14213 4.28137 2.04621 3.12909 3.23894C1.97681 4.43167 1.10339 5.88145 0.575684 7.47734C0.0479746 9.07323 -0.120046 10.7729 0.0844809 12.4464C0.642873 17.2063 4.28885 21.1503 8.85453 21.9493C10.4051 22.2248 11.9954 22.1421 13.5115 21.7071C15.0277 21.2722 16.4322 20.4957 17.6246 19.4333L18.068 19.9093V21.2523L25.0479 28.4773C25.7213 29.1742 26.8216 29.1742 27.495 28.4773C28.1683 27.7803 28.1683 26.6413 27.495 25.9443L20.5315 18.7023ZM10.6775 18.7023C6.58811 18.7023 3.28703 15.2853 3.28703 11.0524C3.28703 6.8194 6.58811 3.40242 10.6775 3.40242C14.7669 3.40242 18.068 6.8194 18.068 11.0524C18.068 15.2853 14.7669 18.7023 10.6775 18.7023Z" fill="white"/>
</svg>
