<svg width="48" height="47" viewBox="0 0 48 47" fill="none" xmlns="http://www.w3.org/2000/svg">
<circle cx="24.1878" cy="23.2708" r="23.2708" fill="#E25454"/>
<path d="M24.1881 9.41912C16.5503 9.41912 10.3364 15.633 10.3364 23.2708C10.3364 30.9086 16.5503 37.1224 24.1881 37.1224C31.8259 37.1224 38.0397 30.9086 38.0397 23.2708C38.0397 15.633 31.8259 9.41912 24.1881 9.41912ZM15.2579 22.0311L18.664 20.3287L16.4935 18.8826L18.0296 16.5777L22.1851 19.348C22.3872 19.4826 22.5503 19.6679 22.6581 19.8854C22.7659 20.1029 22.8147 20.3449 22.7996 20.5872C22.7844 20.8295 22.7059 21.0635 22.5718 21.2659C22.4377 21.4682 22.2527 21.6318 22.0355 21.7402L16.4949 24.5105L15.2579 22.0311ZM24.1881 31.5818C18.6474 31.5818 17.2623 26.0411 17.2623 26.0411H31.1139C31.1139 26.0411 29.7287 31.5818 24.1881 31.5818ZM31.8799 24.5105L26.3392 21.7402C26.122 21.6318 25.9371 21.4682 25.803 21.2659C25.6689 21.0635 25.5904 20.8295 25.5752 20.5872C25.5601 20.3449 25.6089 20.1029 25.7167 19.8854C25.8245 19.6679 25.9876 19.4826 26.1896 19.348L30.3451 16.5777L31.8813 18.8826L29.7121 20.3287L33.1182 22.0311L31.8799 24.5105Z" fill="#F4C366"/>
</svg>
