<svg width="47" height="47" viewBox="0 0 47 47" fill="none" xmlns="http://www.w3.org/2000/svg">
<circle cx="23.2708" cy="23.2708" r="23.2708" fill="#F4C366"/>
<path d="M23.2706 9.41895C15.6328 9.41895 9.41895 15.6328 9.41895 23.2706C9.41895 30.9084 15.6328 37.1223 23.2706 37.1223C30.9084 37.1223 37.1223 30.9084 37.1223 23.2706C37.1223 15.6328 30.9084 9.41895 23.2706 9.41895ZM14.3404 22.0309L17.7466 20.3285L15.576 18.8824L17.1122 16.5775L21.2677 19.3478C21.4697 19.4824 21.6328 19.6677 21.7406 19.8852C21.8484 20.1027 21.8972 20.3447 21.8821 20.587C21.8669 20.8293 21.7884 21.0633 21.6543 21.2657C21.5202 21.468 21.3353 21.6316 21.1181 21.74L15.5774 24.5103L14.3404 22.0309ZM23.2706 31.5816C17.7299 31.5816 16.3448 26.0409 16.3448 26.0409H30.1964C30.1964 26.0409 28.8113 31.5816 23.2706 31.5816ZM30.9624 24.5103L25.4218 21.74C25.2045 21.6316 25.0196 21.468 24.8855 21.2657C24.7514 21.0633 24.6729 20.8293 24.6577 20.587C24.6426 20.3447 24.6914 20.1027 24.7992 19.8852C24.907 19.6677 25.0701 19.4824 25.2722 19.3478L29.4277 16.5775L30.9638 18.8824L28.7946 20.3285L32.2008 22.0309L30.9624 24.5103Z" fill="#E25454"/>
</svg>
